<svg width="20" height="20" viewBox="0 0 20 20" fill="none" xmlns="http://www.w3.org/2000/svg">
<path d="M19.0625 5C18.9796 5 18.9001 5.03292 18.8415 5.09153C18.7829 5.15013 18.75 5.22962 18.75 5.3125V16.5625H17.0531C15.0421 16.5627 13.0376 16.791 11.0781 17.2431C10.9552 17.2713 10.8267 17.2614 10.7095 17.2149C10.5923 17.1683 10.492 17.0873 10.4219 16.9825C11.5376 16.2995 12.8203 15.9379 14.1284 15.9375H17.8125C17.8954 15.9375 17.9749 15.9046 18.0335 15.846C18.0921 15.7874 18.125 15.7079 18.125 15.625V13.4375C18.125 13.3546 18.0921 13.2751 18.0335 13.2165C17.9749 13.1579 17.8954 13.125 17.8125 13.125C17.7296 13.125 17.6501 13.1579 17.5915 13.2165C17.5329 13.2751 17.5 13.3546 17.5 13.4375V15.3125H14.1284C12.791 15.3112 11.4762 15.6571 10.3125 16.3163V7.8125C10.3125 7.72962 10.2796 7.65013 10.221 7.59153C10.1624 7.53292 10.0829 7.5 10 7.5C9.91712 7.5 9.83763 7.53292 9.77903 7.59153C9.72042 7.65013 9.6875 7.72962 9.6875 7.8125V16.3159C8.5238 15.6568 7.20895 15.3111 5.87156 15.3125H2.5V4.0625H7.3125C7.94253 4.06291 8.54662 4.31348 8.99197 4.75913C9.43733 5.20478 9.6875 5.80903 9.6875 6.43906C9.6875 6.52194 9.72042 6.60143 9.77903 6.66003C9.83763 6.71864 9.91712 6.75156 10 6.75156C10.0829 6.75156 10.1624 6.71864 10.221 6.66003C10.2796 6.60143 10.3125 6.52194 10.3125 6.43906C10.3125 5.80903 10.5627 5.20478 11.008 4.75913C11.4534 4.31348 12.0575 4.06291 12.6875 4.0625H17.5V12.1875C17.5 12.2704 17.5329 12.3499 17.5915 12.4085C17.6501 12.4671 17.7296 12.5 17.8125 12.5C17.8954 12.5 17.9749 12.4671 18.0335 12.4085C18.0921 12.3499 18.125 12.2704 18.125 12.1875V3.75C18.125 3.66712 18.0921 3.58763 18.0335 3.52903C17.9749 3.47042 17.8954 3.4375 17.8125 3.4375H12.6875C12.1289 3.43791 11.5815 3.59406 11.1068 3.8884C10.632 4.18274 10.2488 4.60361 10 5.10375C9.75124 4.60361 9.36797 4.18274 8.89323 3.8884C8.41849 3.59406 7.87108 3.43791 7.3125 3.4375H2.1875C2.10462 3.4375 2.02513 3.47042 1.96653 3.52903C1.90792 3.58763 1.875 3.66712 1.875 3.75V15.625C1.875 15.7079 1.90792 15.7874 1.96653 15.846C2.02513 15.9046 2.10462 15.9375 2.1875 15.9375H5.87156C7.17995 15.9378 8.46284 16.2994 9.57875 16.9825C9.50839 17.087 9.40807 17.1679 9.29096 17.2144C9.17384 17.2609 9.04541 17.2709 8.9225 17.2431C6.96278 16.7909 4.95808 16.5626 2.94688 16.5625H1.25V5.3125C1.25 5.22962 1.21708 5.15013 1.15847 5.09153C1.09987 5.03292 1.02038 5 0.9375 5C0.85462 5 0.775134 5.03292 0.716529 5.09153C0.657924 5.15013 0.625 5.22962 0.625 5.3125V16.875C0.625 16.9579 0.657924 17.0374 0.716529 17.096C0.775134 17.1546 0.85462 17.1875 0.9375 17.1875H2.94688C4.91054 17.1878 6.86784 17.4108 8.78125 17.8522C9.00123 17.903 9.23089 17.8929 9.44559 17.8231C9.66029 17.7533 9.85195 17.6264 10 17.4559C10.148 17.6264 10.3397 17.7534 10.5544 17.8232C10.7691 17.893 10.9988 17.903 11.2188 17.8522C13.1322 17.4109 15.0895 17.1879 17.0531 17.1875H19.0625C19.1454 17.1875 19.2249 17.1546 19.2835 17.096C19.3421 17.0374 19.375 16.9579 19.375 16.875V5.3125C19.375 5.22962 19.3421 5.15013 19.2835 5.09153C19.2249 5.03292 19.1454 5 19.0625 5Z" fill="currentColor" />
<path d="M8.97594 6.12906C8.48352 5.80022 7.90463 5.6248 7.3125 5.625H3.75C3.66712 5.625 3.58763 5.65792 3.52903 5.71653C3.47042 5.77513 3.4375 5.85462 3.4375 5.9375C3.4375 6.02038 3.47042 6.09987 3.52903 6.15847C3.58763 6.21708 3.66712 6.25 3.75 6.25H7.3125C7.78171 6.24946 8.2405 6.38836 8.63063 6.64906C8.69958 6.69506 8.78399 6.71178 8.86527 6.69555C8.94656 6.67932 9.01806 6.63146 9.06406 6.5625C9.11006 6.49354 9.12678 6.40914 9.11055 6.32785C9.09432 6.24657 9.04646 6.17506 8.9775 6.12906H8.97594Z" fill="currentColor" />
<path d="M16.2494 5.625H12.6869C12.0943 5.62453 11.5148 5.79996 11.0219 6.12906C10.9878 6.15184 10.9584 6.18112 10.9356 6.21523C10.9128 6.24934 10.8969 6.28761 10.8889 6.32785C10.8808 6.3681 10.8808 6.40954 10.8888 6.4498C10.8967 6.49006 10.9126 6.52836 10.9354 6.5625C10.9581 6.59664 10.9874 6.62597 11.0215 6.6488C11.0556 6.67163 11.0939 6.68751 11.1341 6.69555C11.1744 6.70359 11.2158 6.70362 11.2561 6.69564C11.2963 6.68767 11.3346 6.67184 11.3688 6.64906C11.7589 6.38845 12.2177 6.24956 12.6869 6.25H16.2494C16.3323 6.25 16.4118 6.21708 16.4704 6.15847C16.529 6.09987 16.5619 6.02038 16.5619 5.9375C16.5619 5.85462 16.529 5.77513 16.4704 5.71653C16.4118 5.65792 16.3323 5.625 16.2494 5.625Z" fill="currentColor" />
<path d="M8.97594 7.69156C8.48352 7.36272 7.90463 7.1873 7.3125 7.1875H3.75C3.66712 7.1875 3.58763 7.22042 3.52903 7.27903C3.47042 7.33763 3.4375 7.41712 3.4375 7.5C3.4375 7.58288 3.47042 7.66237 3.52903 7.72097C3.58763 7.77958 3.66712 7.8125 3.75 7.8125H7.3125C7.78171 7.81196 8.2405 7.95086 8.63063 8.21156C8.69958 8.25756 8.78399 8.27428 8.86527 8.25805C8.94656 8.24182 9.01806 8.19396 9.06406 8.125C9.11006 8.05604 9.12678 7.97164 9.11055 7.89035C9.09432 7.80907 9.04646 7.73756 8.9775 7.69156H8.97594Z" fill="currentColor" />
<path d="M16.2494 7.1875H12.6869C12.0943 7.18703 11.5148 7.36246 11.0219 7.69156C10.9878 7.71434 10.9584 7.74362 10.9356 7.77773C10.9128 7.81183 10.8969 7.85011 10.8889 7.89035C10.8808 7.9306 10.8808 7.97204 10.8888 8.0123C10.8967 8.05256 10.9126 8.09086 10.9354 8.125C10.9581 8.15914 10.9874 8.18847 11.0215 8.2113C11.0556 8.23412 11.0939 8.25001 11.1341 8.25805C11.1744 8.26609 11.2158 8.26612 11.2561 8.25814C11.2963 8.25017 11.3346 8.23434 11.3688 8.21156C11.7589 7.95095 12.2177 7.81206 12.6869 7.8125H16.2494C16.3323 7.8125 16.4118 7.77958 16.4704 7.72097C16.529 7.66237 16.5619 7.58288 16.5619 7.5C16.5619 7.41712 16.529 7.33763 16.4704 7.27903C16.4118 7.22042 16.3323 7.1875 16.2494 7.1875Z" fill="currentColor" />
<path d="M8.97594 9.25406C8.48352 8.92522 7.90463 8.7498 7.3125 8.75H3.75C3.66712 8.75 3.58763 8.78292 3.52903 8.84153C3.47042 8.90013 3.4375 8.97962 3.4375 9.0625C3.4375 9.14538 3.47042 9.22487 3.52903 9.28347C3.58763 9.34208 3.66712 9.375 3.75 9.375H7.3125C7.78171 9.37446 8.2405 9.51336 8.63063 9.77406C8.69958 9.82006 8.78399 9.83678 8.86527 9.82055C8.94656 9.80432 9.01806 9.75646 9.06406 9.6875C9.11006 9.61854 9.12678 9.53414 9.11055 9.45285C9.09432 9.37157 9.04646 9.30006 8.9775 9.25406H8.97594Z" fill="currentColor" />
<path d="M16.2494 8.75H12.6869C12.0943 8.74953 11.5148 8.92496 11.0219 9.25406C10.9878 9.27684 10.9584 9.30612 10.9356 9.34023C10.9128 9.37433 10.8969 9.41261 10.8889 9.45285C10.8808 9.4931 10.8808 9.53454 10.8888 9.5748C10.8967 9.61506 10.9126 9.65336 10.9354 9.6875C10.9581 9.72164 10.9874 9.75097 11.0215 9.7738C11.0556 9.79662 11.0939 9.81251 11.1341 9.82055C11.1744 9.82859 11.2158 9.82862 11.2561 9.82064C11.2963 9.81267 11.3346 9.79684 11.3688 9.77406C11.7589 9.51345 12.2177 9.37456 12.6869 9.375H16.2494C16.3323 9.375 16.4118 9.34208 16.4704 9.28347C16.529 9.22487 16.5619 9.14538 16.5619 9.0625C16.5619 8.97962 16.529 8.90013 16.4704 8.84153C16.4118 8.78292 16.3323 8.75 16.2494 8.75Z" fill="currentColor" />
<path d="M8.97594 10.8166C8.48352 10.4877 7.90463 10.3123 7.3125 10.3125H3.75C3.66712 10.3125 3.58763 10.3454 3.52903 10.404C3.47042 10.4626 3.4375 10.5421 3.4375 10.625C3.4375 10.7079 3.47042 10.7874 3.52903 10.846C3.58763 10.9046 3.66712 10.9375 3.75 10.9375H7.3125C7.78171 10.937 8.2405 11.0759 8.63062 11.3366C8.66477 11.3593 8.70306 11.3752 8.74332 11.3831C8.78359 11.3911 8.82502 11.3911 8.86527 11.3831C8.90552 11.375 8.94379 11.3591 8.9779 11.3363C9.01201 11.3135 9.04129 11.2841 9.06406 11.25C9.08684 11.2159 9.10267 11.1776 9.11064 11.1373C9.11862 11.097 9.11859 11.0556 9.11055 11.0154C9.10251 10.9751 9.08662 10.9368 9.0638 10.9027C9.04097 10.8686 9.01164 10.8393 8.9775 10.8166H8.97594Z" fill="currentColor" />
<path d="M16.2494 10.3125H12.6869C12.0943 10.312 11.5148 10.4875 11.0219 10.8166C10.953 10.8626 10.9051 10.9341 10.8889 11.0154C10.8726 11.0966 10.8894 11.181 10.9354 11.25C10.9814 11.319 11.0529 11.3668 11.1341 11.3831C11.2154 11.3993 11.2998 11.3826 11.3688 11.3366C11.759 11.0759 12.2177 10.9371 12.6869 10.9375H16.2494C16.3323 10.9375 16.4118 10.9046 16.4704 10.846C16.529 10.7874 16.5619 10.7079 16.5619 10.625C16.5619 10.5421 16.529 10.4626 16.4704 10.404C16.4118 10.3454 16.3323 10.3125 16.2494 10.3125Z" fill="currentColor" />
<path d="M8.97594 12.3791C8.48352 12.0502 7.90463 11.8748 7.3125 11.875H3.75C3.66712 11.875 3.58763 11.9079 3.52903 11.9665C3.47042 12.0251 3.4375 12.1046 3.4375 12.1875C3.4375 12.2704 3.47042 12.3499 3.52903 12.4085C3.58763 12.4671 3.66712 12.5 3.75 12.5H7.3125C7.78171 12.4995 8.2405 12.6384 8.63063 12.8991C8.69958 12.9451 8.78399 12.9618 8.86527 12.9455C8.94656 12.9293 9.01806 12.8815 9.06406 12.8125C9.11006 12.7435 9.12678 12.6591 9.11055 12.5779C9.09432 12.4966 9.04646 12.4251 8.9775 12.3791H8.97594Z" fill="currentColor" />
<path d="M16.2494 11.875H12.6869C12.0943 11.8745 11.5148 12.05 11.0219 12.3791C10.9878 12.4018 10.9584 12.4311 10.9356 12.4652C10.9128 12.4993 10.8969 12.5376 10.8889 12.5779C10.8808 12.6181 10.8808 12.6595 10.8888 12.6998C10.8967 12.7401 10.9126 12.7784 10.9354 12.8125C10.9813 12.8815 11.0529 12.9293 11.1341 12.9456C11.1744 12.9536 11.2158 12.9536 11.2561 12.9456C11.2963 12.9377 11.3346 12.9218 11.3688 12.8991C11.7589 12.6384 12.2177 12.4996 12.6869 12.5H16.2494C16.3323 12.5 16.4118 12.4671 16.4704 12.4085C16.529 12.3499 16.5619 12.2704 16.5619 12.1875C16.5619 12.1046 16.529 12.0251 16.4704 11.9665C16.4118 11.9079 16.3323 11.875 16.2494 11.875Z" fill="currentColor" />
<path d="M7.3125 13.4375H3.75C3.66712 13.4375 3.58763 13.4704 3.52903 13.529C3.47042 13.5876 3.4375 13.6671 3.4375 13.75C3.4375 13.8329 3.47042 13.9124 3.52903 13.971C3.58763 14.0296 3.66712 14.0625 3.75 14.0625H7.3125C7.78171 14.062 8.2405 14.2009 8.63062 14.4616C8.66477 14.4843 8.70306 14.5002 8.74332 14.5081C8.78359 14.5161 8.82502 14.5161 8.86527 14.5081C8.90552 14.5 8.94379 14.4841 8.9779 14.4613C9.01201 14.4385 9.04129 14.4091 9.06406 14.375C9.08684 14.3409 9.10267 14.3026 9.11064 14.2623C9.11862 14.222 9.11859 14.1806 9.11055 14.1404C9.10251 14.1001 9.08662 14.0618 9.0638 14.0277C9.04097 13.9936 9.01164 13.9643 8.9775 13.9416C8.48464 13.6124 7.90516 13.437 7.3125 13.4375V13.4375Z" fill="currentColor" />
<path d="M16.2494 13.4375H12.6869C12.0943 13.437 11.5148 13.6125 11.0219 13.9416C10.9878 13.9643 10.9584 13.9936 10.9356 14.0277C10.9128 14.0618 10.8969 14.1001 10.8889 14.1404C10.8808 14.1806 10.8808 14.222 10.8888 14.2623C10.8967 14.3026 10.9126 14.3409 10.9354 14.375C10.9581 14.4091 10.9874 14.4385 11.0215 14.4613C11.0556 14.4841 11.0939 14.5 11.1341 14.5081C11.1744 14.5161 11.2158 14.5161 11.2561 14.5081C11.2963 14.5002 11.3346 14.4843 11.3688 14.4616C11.7589 14.2009 12.2177 14.0621 12.6869 14.0625H16.2494C16.3323 14.0625 16.4118 14.0296 16.4704 13.971C16.529 13.9124 16.5619 13.8329 16.5619 13.75C16.5619 13.6671 16.529 13.5876 16.4704 13.529C16.4118 13.4704 16.3323 13.4375 16.2494 13.4375Z" fill="currentColor" />
</svg>
