<svg width="20" height="20" viewBox="0 0 20 20" fill="none" xmlns="http://www.w3.org/2000/svg">
<path d="M2.85832 6.56214H6.90698C7.44387 6.56214 7.95876 6.3466 8.3384 5.96294C8.71803 5.57929 8.93131 5.05894 8.93131 4.51637V2.87975C8.93131 2.33718 8.71803 1.81683 8.3384 1.43318C7.95876 1.04952 7.44387 0.833984 6.90698 0.833984H2.85832C2.32143 0.833984 1.80653 1.04952 1.4269 1.43318C1.04726 1.81683 0.833984 2.33718 0.833984 2.87975V4.51637C0.833984 5.05894 1.04726 5.57929 1.4269 5.96294C1.80653 6.3466 2.32143 6.56214 2.85832 6.56214ZM1.64372 2.87975C1.64372 2.55421 1.77168 2.242 1.99946 2.01181C2.22725 1.78161 2.53618 1.65229 2.85832 1.65229H6.90698C7.22911 1.65229 7.53805 1.78161 7.76583 2.01181C7.99361 2.242 8.12158 2.55421 8.12158 2.87975V4.51637C8.12158 4.84191 7.99361 5.15412 7.76583 5.38431C7.53805 5.61451 7.22911 5.74383 6.90698 5.74383H2.85832C2.53618 5.74383 2.22725 5.61451 1.99946 5.38431C1.77168 5.15412 1.64372 4.84191 1.64372 4.51637V2.87975Z" fill="currentColor"/>
<path d="M17.0046 13.291H12.956C12.4191 13.291 11.9042 13.5066 11.5246 13.8902C11.1449 14.2739 10.9316 14.7942 10.9316 15.3368V16.9734C10.9316 17.516 11.1449 18.0363 11.5246 18.42C11.9042 18.8036 12.4191 19.0192 12.956 19.0192H17.0046C17.5415 19.0192 18.0564 18.8036 18.4361 18.42C18.8157 18.0363 19.029 17.516 19.029 16.9734V15.3368C19.029 14.7942 18.8157 14.2739 18.4361 13.8902C18.0564 13.5066 17.5415 13.291 17.0046 13.291ZM18.2192 16.9734C18.2192 17.2989 18.0913 17.6112 17.8635 17.8413C17.6357 18.0715 17.3268 18.2009 17.0046 18.2009H12.956C12.6338 18.2009 12.3249 18.0715 12.0971 17.8413C11.8693 17.6112 11.7414 17.2989 11.7414 16.9734V15.3368C11.7414 15.0112 11.8693 14.699 12.0971 14.4688C12.3249 14.2386 12.6338 14.1093 12.956 14.1093H17.0046C17.3268 14.1093 17.6357 14.2386 17.8635 14.4688C18.0913 14.699 18.2192 15.0112 18.2192 15.3368V16.9734Z" fill="currentColor"/>
<path d="M2.85832 19.0188H6.90698C7.44387 19.0188 7.95876 18.8033 8.3384 18.4196C8.71803 18.036 8.93131 17.5156 8.93131 16.973V9.60827C8.93131 9.0657 8.71803 8.54535 8.3384 8.16169C7.95876 7.77804 7.44387 7.5625 6.90698 7.5625H2.85832C2.32143 7.5625 1.80653 7.77804 1.4269 8.16169C1.04726 8.54535 0.833984 9.0657 0.833984 9.60827V16.973C0.833984 17.5156 1.04726 18.036 1.4269 18.4196C1.80653 18.8033 2.32143 19.0188 2.85832 19.0188ZM1.64372 9.60827C1.64372 9.28273 1.77168 8.97052 1.99946 8.74032C2.22725 8.51013 2.53618 8.38081 2.85832 8.38081H6.90698C7.22911 8.38081 7.53805 8.51013 7.76583 8.74032C7.99361 8.97052 8.12158 9.28273 8.12158 9.60827V16.973C8.12158 17.2986 7.99361 17.6108 7.76583 17.841C7.53805 18.0712 7.22911 18.2005 6.90698 18.2005H2.85832C2.53618 18.2005 2.22725 18.0712 1.99946 17.841C1.77168 17.6108 1.64372 17.2986 1.64372 16.973V9.60827Z" fill="currentColor"/>
<path d="M17.0046 0.833984H12.956C12.4191 0.833984 11.9042 1.04952 11.5246 1.43318C11.1449 1.81683 10.9316 2.33718 10.9316 2.87975V10.2445C10.9316 10.7871 11.1449 11.3074 11.5246 11.6911C11.9042 12.0748 12.4191 12.2903 12.956 12.2903H17.0046C17.5415 12.2903 18.0564 12.0748 18.4361 11.6911C18.8157 11.3074 19.029 10.7871 19.029 10.2445V2.87975C19.029 2.33718 18.8157 1.81683 18.4361 1.43318C18.0564 1.04952 17.5415 0.833984 17.0046 0.833984ZM18.2192 10.2445C18.2192 10.5701 18.0913 10.8823 17.8635 11.1125C17.6357 11.3427 17.3268 11.472 17.0046 11.472H12.956C12.6338 11.472 12.3249 11.3427 12.0971 11.1125C11.8693 10.8823 11.7414 10.5701 11.7414 10.2445V2.87975C11.7414 2.55421 11.8693 2.242 12.0971 2.01181C12.3249 1.78161 12.6338 1.65229 12.956 1.65229H17.0046C17.3268 1.65229 17.6357 1.78161 17.8635 2.01181C18.0913 2.242 18.2192 2.55421 18.2192 2.87975V10.2445Z" fill="currentColor"/>
</svg>
