<svg width="20" height="20" viewBox="0 0 20 20" fill="none" xmlns="http://www.w3.org/2000/svg">
<g clip-path="url(#clip0_203_18395)">
<path d="M12.4249 10.8101H12.5859C12.7477 10.8101 12.8789 10.9412 12.8789 11.1031C12.8789 11.265 12.7477 11.3961 12.5859 11.3961H12.4249C11.9274 11.3961 11.5227 11.0037 11.5227 10.5214V9.47828C11.5227 8.99595 11.9274 8.60352 12.4249 8.60352H12.5859C12.7477 8.60352 12.8789 8.73468 12.8789 8.89655C12.8789 9.05842 12.7477 9.18958 12.5859 9.18958H12.4249C12.2506 9.18958 12.1088 9.31906 12.1088 9.47828V10.5214C12.1088 10.6806 12.2506 10.8101 12.4249 10.8101Z" fill="currentColor"/>
<path d="M10.4394 18.9565C10.4394 19.0485 10.4801 19.1348 10.5511 19.1933C10.6221 19.2518 10.7146 19.2753 10.8049 19.2576L19.1659 17.6266C19.3096 17.5986 19.4139 17.472 19.4139 17.3256V9.29049C19.4139 9.12862 19.5451 8.99746 19.707 8.99746C19.8688 8.99746 20 9.12862 20 9.29049V17.3256C20 17.7517 19.6964 18.1203 19.2781 18.2019L10.9171 19.8328C10.8598 19.844 10.8023 19.8495 10.7451 19.8495C10.54 19.8495 10.3401 19.7787 10.1785 19.6456C9.97183 19.4754 9.85332 19.2242 9.85332 18.9565V18.8429H6.06442C5.57212 18.8429 5.1716 18.4423 5.1716 17.95V12.0267H4.53927V12.8009C4.53927 13.0541 4.39631 13.2771 4.16614 13.3828C4.07916 13.4227 3.98766 13.4423 3.89705 13.4423C3.74784 13.4423 3.60113 13.3892 3.48161 13.2864L0.222939 10.4856C0.0812666 10.3638 -1.87207e-06 10.1868 -4.09434e-05 10C-4.09434e-05 9.81319 0.0812284 9.63616 0.222901 9.51437L3.48157 6.71342C3.67368 6.54827 3.93597 6.51142 4.1661 6.61707C4.39627 6.72276 4.53923 6.9457 4.53923 7.199V7.97316H5.17156V2.04983C5.17156 1.55753 5.57208 1.15701 6.06438 1.15701H7.15686C7.31869 1.15701 7.44989 1.28817 7.44989 1.45004C7.44989 1.61192 7.31869 1.74308 7.15686 1.74308H6.06438C5.89524 1.74308 5.75763 1.88065 5.75763 2.04983V7.9732H8.34009C8.6697 7.9732 8.93784 8.24135 8.93784 8.57099V11.4289C8.93784 11.7585 8.6697 12.0267 8.34009 12.0267H5.75763V17.95C5.75763 18.1192 5.89524 18.2568 6.06438 18.2568H9.85329V1.74312H8.48774C8.32591 1.74312 8.19471 1.61196 8.19471 1.45008C8.19471 1.28821 8.32591 1.15705 8.48774 1.15705H9.85329V1.04339C9.85329 0.775672 9.97179 0.524521 10.1784 0.354287C10.385 0.184053 10.6543 0.115796 10.917 0.167057L19.2781 1.79801C19.6964 1.87963 20 2.24811 20 2.67431V7.94499C20 8.10686 19.8688 8.23803 19.707 8.23803C19.5451 8.23803 19.4139 8.10686 19.4139 7.94499V2.67431C19.4139 2.5279 19.3096 2.40131 19.1659 2.37326L10.8049 0.742305C10.7146 0.724645 10.6221 0.748127 10.5511 0.806616C10.4801 0.865106 10.4394 0.951376 10.4394 1.04339L10.4394 18.9565ZM0.60498 10.0411L3.86365 12.842C3.87017 12.8476 3.89006 12.8646 3.92163 12.8502C3.95324 12.8356 3.95324 12.8095 3.95324 12.8009V11.9637C3.95324 11.6753 4.18794 11.4405 4.4764 11.4405H8.34017C8.34662 11.4405 8.35185 11.4353 8.35185 11.4289V8.57095C8.35185 8.56451 8.34662 8.55923 8.34017 8.55923H4.4764C4.18794 8.55923 3.95324 8.32453 3.95324 8.03607V7.19896C3.95324 7.19037 3.95324 7.16419 3.92163 7.14965C3.8901 7.1352 3.87017 7.15216 3.86365 7.15782L0.60498 9.95885C0.589351 9.97229 0.586069 9.98866 0.586069 9.99999C0.586108 10.0114 0.589351 10.0277 0.60498 10.0411V10.0411Z" fill="currentColor"/>
</g>
<defs>
<clipPath id="clip0_203_18395">
<rect width="20" height="20" fill="white" style="fill:white;fill-opacity:1;" transform="matrix(-1 0 0 1 20 0)"/>
</clipPath>
</defs>
</svg>
