<svg width="20" height="20" viewBox="0 0 20 20" fill="none" xmlns="http://www.w3.org/2000/svg">
<path d="M19.0809 5.32422H7.18191C6.67504 5.32422 6.2627 5.7366 6.2627 6.24344V13.7586C6.2627 14.2654 6.67508 14.6778 7.18191 14.6778H19.0809C19.5877 14.6778 20.0001 14.2654 20.0001 13.7586V6.24352C20.0001 5.7366 19.5877 5.32422 19.0809 5.32422ZM7.18191 5.91016H19.0809C19.2205 5.91016 19.3402 5.99656 19.3897 6.11867L14.2505 10.0974C13.5916 10.6075 12.6711 10.6075 12.0121 10.0974L6.87309 6.11871C6.92258 5.99664 7.04227 5.91016 7.18191 5.91016ZM19.4141 13.1612L16.1289 10.6178C16.001 10.5188 15.817 10.5422 15.7179 10.6701C15.6188 10.7981 15.6423 10.9821 15.7702 11.0811L19.3896 13.8833C19.3402 14.0054 19.2205 14.0919 19.0809 14.0919H7.18191C7.04227 14.0919 6.92258 14.0055 6.87309 13.8834L10.4925 11.0812C10.6205 10.9821 10.6439 10.7981 10.5448 10.6702C10.4458 10.5422 10.2618 10.5188 10.1338 10.6179L6.84859 13.1613V6.84082L11.6534 10.5607C12.0885 10.8975 12.6099 11.066 13.1313 11.066C13.6527 11.066 14.1741 10.8975 14.6092 10.5607L19.4141 6.84082V13.1612Z" fill="currentColor"/>
<path d="M5.3025 10.6465H1.54492C1.38312 10.6465 1.25195 10.7777 1.25195 10.9395C1.25195 11.1013 1.38312 11.2324 1.54492 11.2324H5.3025C5.4643 11.2324 5.59547 11.1013 5.59547 10.9395C5.59547 10.7777 5.4643 10.6465 5.3025 10.6465Z" fill="currentColor"/>
<path d="M5.30305 12.2129H0.292969C0.131172 12.2129 0 12.3441 0 12.5059C0 12.6677 0.131172 12.7988 0.292969 12.7988H5.30305C5.46484 12.7988 5.59602 12.6677 5.59602 12.5059C5.59602 12.3441 5.46484 12.2129 5.30305 12.2129Z" fill="currentColor"/>
<path d="M5.30289 9.08008H2.79785C2.63605 9.08008 2.50488 9.21125 2.50488 9.37305C2.50488 9.53484 2.63605 9.66602 2.79785 9.66602H5.30289C5.46469 9.66602 5.59586 9.53484 5.59586 9.37305C5.59586 9.21121 5.46469 9.08008 5.30289 9.08008Z" fill="currentColor"/>
<path d="M5.30234 7.51562H4.0498C3.88801 7.51562 3.75684 7.6468 3.75684 7.80859C3.75684 7.97039 3.88801 8.10156 4.0498 8.10156H5.30234C5.46413 8.10156 5.5953 7.97039 5.5953 7.80859C5.5953 7.6468 5.46413 7.51562 5.30234 7.51562Z" fill="currentColor"/>
</svg>
