<svg width="20" height="16" viewBox="0 0 20 16" fill="none" xmlns="http://www.w3.org/2000/svg">
<path d="M8.64071 7.865C10.0145 7.865 11.1326 6.7475 11.1326 5.37344C11.1326 4.00438 10.0148 2.89062 8.64071 2.89062C7.27195 2.89062 6.1582 4.00438 6.1582 5.37344C6.1582 6.7475 7.27195 7.865 8.64071 7.865ZM8.64071 3.51563C9.67008 3.51563 10.5076 4.34906 10.5076 5.37344C10.5076 6.4025 9.67008 7.24 8.64071 7.24C7.61633 7.24 6.7832 6.4025 6.7832 5.37344C6.7832 4.34906 7.61664 3.51563 8.64071 3.51563Z" fill="currentColor"/>
<path d="M16.3439 7.75086C16.2139 3.61742 12.8095 0.294922 8.64074 0.294922C4.3948 0.294922 0.94043 3.7493 0.94043 7.99523C0.94043 12.2459 4.3948 15.704 8.64074 15.704C9.93418 15.704 11.2048 15.3734 12.3345 14.7537C13.0461 15.3462 13.9604 15.704 14.957 15.704C17.2198 15.704 19.0607 13.863 19.0607 11.6005C19.0604 9.82867 17.9248 8.31992 16.3439 7.75086V7.75086ZM8.64043 0.919922C12.4064 0.919922 15.4942 3.86961 15.7114 7.57742C15.4664 7.5318 15.2148 7.50523 14.9567 7.50523C13.4439 7.50523 12.1232 8.32867 11.4114 9.54742C10.5339 9.18679 9.60387 9.00242 8.64043 9.00242C6.30762 9.00242 4.15105 10.1018 2.78355 11.9646C2.01512 10.8315 1.56543 9.46492 1.56543 7.99523C1.56543 4.09367 4.73949 0.919922 8.64043 0.919922ZM3.17824 12.4924C4.42074 10.6955 6.44418 9.62711 8.64043 9.62711C9.50855 9.62711 10.347 9.78992 11.1379 10.1099C10.9561 10.5724 10.8526 11.0743 10.8526 11.6005C10.8526 12.6324 11.2382 13.5737 11.8695 14.2955C10.8736 14.808 9.76605 15.079 8.64043 15.079C6.44355 15.0787 4.47699 14.0709 3.17824 12.4924V12.4924ZM14.9567 15.0787C13.0382 15.0787 11.4776 13.5184 11.4776 11.6002C11.4776 9.68648 13.0382 8.12992 14.9567 8.12992C16.8748 8.12992 18.4354 9.68648 18.4354 11.6002C18.4354 13.5184 16.8748 15.0787 14.9567 15.0787Z" fill="currentColor"/>
<path d="M16.5427 11.2881H15.2692V10.0234C15.2692 9.85062 15.1295 9.71094 14.9567 9.71094C14.7839 9.71094 14.6442 9.85062 14.6442 10.0234V11.2881H13.3711C13.1983 11.2881 13.0586 11.4278 13.0586 11.6006C13.0586 11.7734 13.1983 11.9131 13.3711 11.9131H14.6442V13.1862C14.6442 13.3591 14.7839 13.4987 14.9567 13.4987C15.1295 13.4987 15.2692 13.3591 15.2692 13.1862V11.9131H16.5423C16.7152 11.9131 16.8548 11.7734 16.8548 11.6006C16.8548 11.4278 16.7152 11.2881 16.5427 11.2881V11.2881Z" fill="currentColor"/>
</svg>
