<svg width="20" height="20" viewBox="0 0 20 20" fill="none" xmlns="http://www.w3.org/2000/svg">
<g clip-path="url(#clip0_203_18378)">
<path d="M11.6696 6.56641C11.6696 6.40461 11.5385 6.27344 11.3767 6.27344H3.21777C3.05594 6.27344 2.9248 6.40461 2.9248 6.56641C2.9248 6.7282 3.05594 6.85938 3.21777 6.85938H11.3767C11.5385 6.85938 11.6696 6.7282 11.6696 6.56641Z" fill="currentColor"/>
<path d="M9.99598 8.96484H3.21777C3.05594 8.96484 2.9248 9.09602 2.9248 9.25781C2.9248 9.41961 3.05594 9.55078 3.21777 9.55078H9.99594C10.1578 9.55078 10.2889 9.41961 10.2889 9.25781C10.2889 9.09602 10.1578 8.96484 9.99598 8.96484V8.96484Z" fill="currentColor"/>
<path d="M9.99598 11.6582H3.21777C3.05594 11.6582 2.9248 11.7894 2.9248 11.9512C2.9248 12.113 3.05594 12.2441 3.21777 12.2441H9.99594C10.1578 12.2441 10.2889 12.113 10.2889 11.9512C10.2889 11.7894 10.1578 11.6582 9.99598 11.6582V11.6582Z" fill="currentColor"/>
<path d="M19.7438 8.39376C18.7585 7.59915 18.1934 6.41739 18.1934 5.15153V4.80422C18.1934 3.83407 17.6497 2.98856 16.8511 2.55617V2.15363C16.8511 1.4852 16.3072 0.941406 15.6388 0.941406C14.9704 0.941406 14.4266 1.48524 14.4266 2.15363V2.55617C13.6279 2.98856 13.0842 3.83407 13.0842 4.80426V5.15157C13.0842 6.41747 12.5191 7.59919 11.534 8.39372C11.2677 8.60825 11.1983 8.98263 11.3786 9.27759C11.5029 9.48079 11.7193 9.60212 11.9575 9.60212H13.8303C14.082 10.3748 14.8072 10.9136 15.6388 10.9136C16.4704 10.9136 17.1956 10.3748 17.4473 9.60212H19.3201C19.5583 9.60212 19.7747 9.48083 19.899 9.27763C20.0797 8.98204 20.0093 8.60767 19.7438 8.39376V8.39376ZM15.0125 2.15363C15.0125 1.80828 15.2935 1.52731 15.6388 1.52731C15.9842 1.52731 16.2651 1.80828 16.2651 2.15363V2.32762C15.8584 2.22473 15.4274 2.22266 15.0125 2.32762V2.15363ZM15.6388 10.3276C15.1311 10.3276 14.6809 10.0374 14.4623 9.60208H16.8154C16.5968 10.0374 16.1466 10.3276 15.6388 10.3276V10.3276ZM19.3201 9.01614C18.4861 9.01614 13.2684 9.01614 11.9576 9.01614C11.8745 9.01614 11.8271 8.91009 11.9017 8.84985C13.0256 7.94349 13.6702 6.59548 13.6702 5.15153V4.80422C13.6702 3.71871 14.5533 2.83559 15.6388 2.83559C16.7243 2.83559 17.6075 3.71871 17.6075 4.80422V5.15153C17.6075 6.59548 18.252 7.94349 19.376 8.84993C19.4506 8.91001 19.4031 9.01614 19.3201 9.01614V9.01614Z" fill="currentColor"/>
<path d="M17.4061 10.5122C17.2443 10.5122 17.1131 10.6434 17.1131 10.8052V13.3124C17.1131 14.2819 16.3244 15.0707 15.3548 15.0707H6.47004C6.22355 15.0707 5.98934 15.1642 5.81059 15.3339L2.63992 18.3437L3.10688 15.7509C3.17078 15.3962 2.89805 15.0707 2.53832 15.0707H2.34422C1.37469 15.0707 0.585938 14.282 0.585938 13.3124V5.30516C0.585938 4.33563 1.37469 3.54688 2.34422 3.54688H12.5314C12.6932 3.54688 12.8243 3.4157 12.8243 3.25391C12.8243 3.09211 12.6932 2.96094 12.5314 2.96094H2.34422C1.05164 2.96094 0 4.01254 0 5.30516V13.3124C0 14.605 1.05164 15.6566 2.34422 15.6566H2.52848L2.02484 18.4532C1.98527 18.6729 2.0907 18.8917 2.28707 18.9976C2.48258 19.103 2.7234 19.0723 2.88605 18.9179L6.21398 15.7588C6.2834 15.6929 6.37434 15.6566 6.47008 15.6566H15.3549C16.6475 15.6566 17.6991 14.605 17.6991 13.3123V10.8052C17.6991 10.6434 17.5679 10.5122 17.4061 10.5122V10.5122Z" fill="currentColor"/>
</g>
<defs>
<clipPath id="clip0_203_18378">
<rect width="20" height="20" fill="white" style="fill:white;fill-opacity:1;"/>
</clipPath>
</defs>
</svg>
