<svg width="20" height="20" viewBox="0 0 20 20" fill="none" xmlns="http://www.w3.org/2000/svg">
<path fill-rule="evenodd" clip-rule="evenodd" d="M6.6768 1.25195C6.56613 1.25197 6.46 1.29595 6.38174 1.37422L3.04316 4.7128C2.9649 4.79105 2.92092 4.89719 2.9209 5.00786V17.5275C2.9209 18.2139 3.48649 18.7795 4.17287 18.7795H15.8579C16.5443 18.7795 17.1099 18.2139 17.1099 17.5275V15.0236C17.1107 14.9683 17.1004 14.9134 17.0798 14.8621C17.0592 14.8108 17.0286 14.7641 16.9898 14.7247C16.9509 14.6853 16.9047 14.654 16.8536 14.6327C16.8026 14.6113 16.7479 14.6003 16.6926 14.6003C16.6372 14.6003 16.5825 14.6113 16.5315 14.6327C16.4804 14.654 16.4342 14.6853 16.3954 14.7247C16.3565 14.7641 16.3259 14.8108 16.3053 14.8621C16.2847 14.9134 16.2744 14.9683 16.2752 15.0236V17.5275C16.2752 17.766 16.0963 17.9449 15.8579 17.9449H4.17287C3.93445 17.9449 3.75554 17.766 3.75554 17.5275V5.42477H5.84216C6.52853 5.42477 7.09453 4.85918 7.09453 4.17281V2.0866H15.8579C16.0963 2.0866 16.2752 2.26551 16.2752 2.50392V4.17281C16.2744 4.22811 16.2847 4.28301 16.3053 4.33433C16.3259 4.38564 16.3565 4.43235 16.3954 4.47173C16.4342 4.51112 16.4804 4.54239 16.5315 4.56373C16.5825 4.58508 16.6372 4.59607 16.6926 4.59607C16.7479 4.59607 16.8026 4.58508 16.8536 4.56373C16.9047 4.54239 16.9509 4.51112 16.9898 4.47173C17.0286 4.43235 17.0592 4.38564 17.0798 4.33433C17.1004 4.28301 17.1107 4.22811 17.1099 4.17281V2.50392C17.1099 1.81755 16.5443 1.25195 15.8579 1.25195H6.6768ZM6.25948 2.67672V4.17281C6.25948 4.41122 6.08057 4.59013 5.84216 4.59013H4.34607L6.25948 2.67672ZM16.6926 5.42518C16.5819 5.42518 16.4757 5.46915 16.3975 5.54741C16.3192 5.62568 16.2752 5.73182 16.2752 5.8425C16.2752 5.95319 16.3192 6.05933 16.3975 6.1376C16.4757 6.21586 16.5819 6.25983 16.6926 6.25983C16.8032 6.25983 16.9094 6.21586 16.9876 6.1376C17.0659 6.05933 17.1099 5.95319 17.1099 5.8425C17.1099 5.73182 17.0659 5.62568 16.9876 5.54741C16.9094 5.46915 16.8032 5.42518 16.6926 5.42518ZM16.6864 7.08917C16.5758 7.0908 16.4704 7.13626 16.3933 7.21558C16.3162 7.29491 16.2737 7.40159 16.2752 7.5122V12.5197C16.2744 12.575 16.2847 12.6299 16.3053 12.6812C16.3259 12.7325 16.3565 12.7792 16.3954 12.8186C16.4342 12.858 16.4804 12.8893 16.5315 12.9106C16.5825 12.9319 16.6372 12.9429 16.6926 12.9429C16.7479 12.9429 16.8026 12.9319 16.8536 12.9106C16.9047 12.8893 16.9509 12.858 16.9898 12.8186C17.0286 12.7792 17.0592 12.7325 17.0798 12.6812C17.1004 12.6299 17.1107 12.575 17.1099 12.5197V7.5122C17.1106 7.4564 17.1002 7.40102 17.0792 7.34932C17.0582 7.29763 17.027 7.25067 16.9875 7.21123C16.948 7.17179 16.9011 7.14067 16.8493 7.1197C16.7976 7.09874 16.7422 7.08836 16.6864 7.08917ZM12.5193 8.76417C12.4637 8.76294 12.4085 8.77282 12.3568 8.79324C12.305 8.81365 12.2579 8.8442 12.2182 8.88307C12.1784 8.92195 12.1469 8.96837 12.1253 9.01961C12.1037 9.07086 12.0926 9.1259 12.0926 9.18149C12.0926 9.23709 12.1037 9.29213 12.1253 9.34337C12.1469 9.39462 12.1784 9.44104 12.2182 9.47992C12.2579 9.51879 12.305 9.54933 12.3568 9.56975C12.4085 9.59017 12.4637 9.60005 12.5193 9.59882H13.1799L10.8496 11.9291L9.4758 10.5553C9.31284 10.3925 9.04864 10.3925 8.88568 10.5553L6.38134 13.0601C5.98795 13.4544 6.57929 14.0441 6.97268 13.6498L9.18156 11.4409L10.5554 12.8151C10.7183 12.9779 10.9825 12.9779 11.1455 12.8151L13.7717 10.1877V10.8512C13.7705 10.9068 13.7804 10.962 13.8008 11.0138C13.8212 11.0655 13.8517 11.1126 13.8906 11.1523C13.9295 11.1921 13.9759 11.2236 14.0271 11.2452C14.0784 11.2668 14.1334 11.2779 14.189 11.2779C14.2446 11.2779 14.2997 11.2668 14.3509 11.2452C14.4021 11.2236 14.4486 11.1921 14.4874 11.1523C14.5263 11.1126 14.5569 11.0655 14.5773 11.0138C14.5977 10.962 14.6076 10.9068 14.6063 10.8512V9.18149C14.6063 9.07082 14.5624 8.96468 14.4841 8.88642C14.4058 8.80815 14.2997 8.76418 14.189 8.76417H12.5193ZM14.1829 11.6797C14.0724 11.6812 13.9669 11.7265 13.8898 11.8057C13.8126 11.8849 13.77 11.9914 13.7713 12.1019V15.8587C13.7713 15.9694 13.8153 16.0756 13.8936 16.1539C13.9719 16.2322 14.0781 16.2762 14.1888 16.2762C14.2996 16.2762 14.4058 16.2322 14.4841 16.1539C14.5624 16.0756 14.6063 15.9694 14.6063 15.8587V12.1019C14.607 12.0462 14.5965 11.9909 14.5754 11.9393C14.5544 11.8877 14.5232 11.8409 14.4837 11.8015C14.4442 11.7621 14.3973 11.7311 14.3456 11.7102C14.294 11.6893 14.2386 11.6789 14.1829 11.6797V11.6797ZM9.17381 12.3053C9.06334 12.3072 8.95815 12.3529 8.8813 12.4323C8.80445 12.5117 8.7622 12.6183 8.76382 12.7287V15.8587C8.76065 15.9153 8.76907 15.9721 8.78858 16.0254C8.80809 16.0787 8.83827 16.1275 8.87728 16.1688C8.91628 16.21 8.9633 16.2429 9.01544 16.2653C9.06758 16.2878 9.12376 16.2994 9.18054 16.2994C9.23731 16.2994 9.29349 16.2878 9.34563 16.2653C9.39778 16.2429 9.44479 16.21 9.4838 16.1688C9.5228 16.1275 9.55298 16.0787 9.57249 16.0254C9.592 15.9721 9.60042 15.9153 9.59725 15.8587V12.7287C9.59807 12.6729 9.58767 12.6175 9.56668 12.5657C9.54569 12.514 9.51453 12.467 9.47505 12.4275C9.43557 12.388 9.38856 12.3569 9.33682 12.3359C9.28507 12.3149 9.22964 12.3045 9.17381 12.3053V12.3053ZM12.5132 12.5131C12.4584 12.5139 12.4042 12.5254 12.3538 12.5471C12.3035 12.5688 12.2579 12.6002 12.2196 12.6396C12.1814 12.6789 12.1513 12.7254 12.1311 12.7763C12.1108 12.8273 12.1008 12.8817 12.1016 12.9366V15.8587C12.1016 15.9694 12.1456 16.0756 12.2239 16.1539C12.3022 16.2322 12.4084 16.2762 12.5191 16.2762C12.6299 16.2762 12.7361 16.2322 12.8144 16.1539C12.8927 16.0756 12.9366 15.9694 12.9366 15.8587V12.9366C12.9375 12.8808 12.9271 12.8253 12.9061 12.7736C12.8851 12.7218 12.8539 12.6748 12.8144 12.6353C12.775 12.5959 12.728 12.5647 12.6762 12.5437C12.6245 12.5227 12.569 12.5123 12.5132 12.5131V12.5131ZM10.8435 13.3478C10.7886 13.3485 10.7345 13.3601 10.6841 13.3818C10.6337 13.4035 10.588 13.435 10.5498 13.4743C10.5116 13.5137 10.4815 13.5602 10.4612 13.6113C10.441 13.6623 10.431 13.7168 10.4319 13.7716V15.8587C10.4319 15.9694 10.4759 16.0756 10.5542 16.1539C10.6325 16.2322 10.7387 16.2762 10.8494 16.2762C10.9602 16.2762 11.0664 16.2322 11.1447 16.1539C11.223 16.0756 11.2669 15.9694 11.2669 15.8587V13.7716C11.2678 13.7158 11.2575 13.6603 11.2365 13.6085C11.2155 13.5567 11.1844 13.5097 11.1449 13.4701C11.1054 13.4306 11.0584 13.3994 11.0066 13.3784C10.9548 13.3574 10.8994 13.347 10.8435 13.3478V13.3478ZM5.84216 13.7716C5.73148 13.7716 5.62533 13.8156 5.54707 13.8939C5.4688 13.9721 5.42484 14.0783 5.42484 14.189C5.42484 14.2996 5.4688 14.4058 5.54707 14.4841C5.62533 14.5623 5.73148 14.6063 5.84216 14.6063C5.95284 14.6063 6.05899 14.5623 6.13725 14.4841C6.21551 14.4058 6.25948 14.2996 6.25948 14.189C6.25948 14.0783 6.21551 13.9721 6.13725 13.8939C6.05899 13.8156 5.95284 13.7716 5.84216 13.7716ZM7.50534 13.975C7.39494 13.9766 7.28969 14.0219 7.21262 14.101C7.13555 14.18 7.09294 14.2864 7.09413 14.3968V15.8587C7.09413 15.9694 7.13812 16.0756 7.21642 16.1539C7.29472 16.2322 7.40092 16.2762 7.51165 16.2762C7.62239 16.2762 7.72859 16.2322 7.80689 16.1539C7.88519 16.0756 7.92918 15.9694 7.92918 15.8587V14.3968C7.92978 14.3411 7.91921 14.2858 7.8981 14.2342C7.87698 14.1826 7.84575 14.1358 7.80625 14.0965C7.76674 14.0572 7.71976 14.0262 7.66808 14.0053C7.6164 13.9844 7.56106 13.9741 7.50534 13.975V13.975ZM5.83564 15.0175C5.7808 15.0183 5.72666 15.0299 5.6763 15.0516C5.62595 15.0734 5.58038 15.1048 5.54219 15.1442C5.504 15.1836 5.47394 15.2301 5.45374 15.281C5.43353 15.332 5.42357 15.3865 5.42443 15.4413V15.8587C5.42443 15.9694 5.46842 16.0756 5.54672 16.1539C5.62502 16.2322 5.73122 16.2762 5.84195 16.2762C5.95269 16.2762 6.05889 16.2322 6.13719 16.1539C6.21549 16.0756 6.25948 15.9694 6.25948 15.8587V15.4413C6.26036 15.3854 6.24999 15.3299 6.229 15.2781C6.20801 15.2263 6.17682 15.1792 6.13729 15.1397C6.09776 15.1002 6.05068 15.069 5.99886 15.048C5.94705 15.027 5.89154 15.0166 5.83564 15.0175V15.0175Z" fill="currentColor"/>
</svg>
