<svg width="20" height="20" viewBox="0 0 20 20" fill="none" xmlns="http://www.w3.org/2000/svg">
<g clip-path="url(#clip0_203_18340)">
<path d="M9.99976 12.6049C9.88121 12.6049 9.78516 12.5102 9.78516 12.3933V11.4069C9.78516 11.29 9.88121 11.1953 9.99976 11.1953C10.1183 11.1953 10.2144 11.29 10.2144 11.4069V12.3933C10.2144 12.5102 10.1183 12.6049 9.99976 12.6049Z" fill="currentColor"/>
<path d="M15.0796 12.9303C15.0162 12.9303 14.9535 12.9027 14.9112 12.85L13.0083 10.4797C12.9347 10.3881 12.9503 10.2549 13.0433 10.1824C13.1364 10.1099 13.2713 10.1254 13.3448 10.2169L15.2477 12.5872C15.3212 12.6788 15.3056 12.812 15.2126 12.8845C15.1732 12.9153 15.1262 12.9303 15.0796 12.9303V12.9303Z" fill="currentColor"/>
<path d="M4.93518 12.9303C4.88874 12.9303 4.84204 12.9154 4.80272 12.8851C4.7095 12.8128 4.69336 12.6798 4.76658 12.5878L6.65512 10.2175C6.72842 10.1257 6.86328 10.1098 6.95642 10.1819C7.04965 10.2542 7.06578 10.3872 6.99256 10.4791L5.10403 12.8494C5.06171 12.9025 4.9987 12.9303 4.93518 12.9303V12.9303Z" fill="currentColor"/>
<path d="M4.20902 18.7064C4.09047 18.7064 3.99442 18.6116 3.99442 18.4947V17.2285C3.99442 17.0161 3.81913 16.8432 3.60366 16.8432H2.4811C2.26564 16.8432 2.09035 17.0161 2.09035 17.2285V18.4947C2.09035 18.6116 1.99429 18.7064 1.87574 18.7064C1.75719 18.7064 1.66113 18.6116 1.66113 18.4947V17.2285C1.66113 16.7827 2.02897 16.4199 2.4811 16.4199H3.60358C4.05571 16.4199 4.42354 16.7827 4.42354 17.2285V18.4947C4.42363 18.6116 4.32748 18.7064 4.20902 18.7064Z" fill="currentColor"/>
<path d="M3.02878 16.0966C2.44642 16.0966 1.97266 15.6294 1.97266 15.0551C1.97266 14.4809 2.44642 14.0137 3.02878 14.0137C3.61113 14.0137 4.08481 14.4809 4.08481 15.0551C4.08481 15.6295 3.61113 16.0966 3.02878 16.0966ZM3.02878 14.437C2.68309 14.437 2.40187 14.7143 2.40187 15.0552C2.40187 15.3961 2.68309 15.6734 3.02878 15.6734C3.37438 15.6734 3.6556 15.3961 3.6556 15.0552C3.6556 14.7143 3.37438 14.437 3.02878 14.437Z" fill="currentColor"/>
<path d="M11.1807 18.7064C11.0622 18.7064 10.9661 18.6116 10.9661 18.4947V17.2285C10.9661 17.0161 10.7908 16.8432 10.5753 16.8432H9.45278C9.23732 16.8432 9.06202 17.0161 9.06202 17.2285V18.4947C9.06202 18.6116 8.96597 18.7064 8.84742 18.7064C8.72887 18.7064 8.63281 18.6116 8.63281 18.4947V17.2285C8.63281 16.7827 9.00065 16.4199 9.45278 16.4199H10.5753C11.0275 16.4199 11.3953 16.7827 11.3953 17.2285V18.4947C11.3953 18.6116 11.2993 18.7064 11.1807 18.7064Z" fill="currentColor"/>
<path d="M9.99939 16.0966C9.41704 16.0966 8.94336 15.6294 8.94336 15.0551C8.94336 14.4809 9.41712 14.0137 9.99939 14.0137C10.5817 14.0137 11.0555 14.4809 11.0555 15.0551C11.0555 15.6295 10.5817 16.0966 9.99939 16.0966ZM9.99939 14.437C9.65379 14.437 9.37257 14.7143 9.37257 15.0552C9.37257 15.3961 9.65379 15.6734 9.99939 15.6734C10.345 15.6734 10.6263 15.3961 10.6263 15.0552C10.6263 14.7143 10.345 14.437 9.99939 14.437Z" fill="currentColor"/>
<path d="M18.1524 18.7064C18.0338 18.7064 17.9378 18.6116 17.9378 18.4947V17.2285C17.9378 17.0161 17.7625 16.8432 17.5469 16.8432H16.4245C16.209 16.8432 16.0337 17.0161 16.0337 17.2285V18.4947C16.0337 18.6116 15.9376 18.7064 15.8191 18.7064C15.7005 18.7064 15.6045 18.6116 15.6045 18.4947V17.2285C15.6045 16.7827 15.9723 16.4199 16.4245 16.4199H17.5469C17.9992 16.4199 18.367 16.7827 18.367 17.2285V18.4947C18.367 18.6116 18.2709 18.7064 18.1524 18.7064Z" fill="currentColor"/>
<path d="M16.972 16.0966C16.3898 16.0966 15.916 15.6294 15.916 15.0551C15.916 14.4809 16.3898 14.0137 16.972 14.0137C17.5544 14.0137 18.0282 14.4809 18.0282 15.0551C18.0282 15.6295 17.5544 16.0966 16.972 16.0966ZM16.972 14.437C16.6264 14.437 16.3452 14.7143 16.3452 15.0552C16.3452 15.3961 16.6264 15.6734 16.972 15.6734C17.3177 15.6734 17.599 15.3961 17.599 15.0552C17.599 14.7143 17.3177 14.437 16.972 14.437Z" fill="currentColor"/>
<path d="M3.02852 13.0273C1.35854 13.0273 0 14.3671 0 16.014C0 17.6608 1.35863 19.0006 3.02852 19.0006C4.69841 19.0006 6.05704 17.6608 6.05704 16.014C6.05704 14.3671 4.69841 13.0273 3.02852 13.0273ZM3.02852 18.5774C1.59521 18.5774 0.429212 17.4274 0.429212 16.014C0.429212 14.6006 1.59521 13.4507 3.02852 13.4507C4.46175 13.4507 5.62783 14.6006 5.62783 16.014C5.62783 17.4274 4.46175 18.5774 3.02852 18.5774Z" fill="currentColor"/>
<path d="M10.0002 13.0273C8.33022 13.0273 6.97168 14.3671 6.97168 16.014C6.97168 17.6608 8.33031 19.0006 10.0002 19.0006C11.6702 19.0006 13.0287 17.6608 13.0287 16.014C13.0287 14.3671 11.6702 13.0273 10.0002 13.0273ZM10.0002 18.5774C8.56689 18.5774 7.40089 17.4274 7.40089 16.014C7.40089 14.6006 8.56689 13.4507 10.0002 13.4507C11.4334 13.4507 12.5995 14.6006 12.5995 16.014C12.5995 17.4274 11.4334 18.5774 10.0002 18.5774Z" fill="currentColor"/>
<path d="M16.9719 13.0273C15.3019 13.0273 13.9434 14.3671 13.9434 16.014C13.9434 17.6608 15.3019 19.0006 16.9719 19.0006C18.6419 19.0006 20.0004 17.6608 20.0004 16.014C20.0004 14.3671 18.6419 13.0273 16.9719 13.0273ZM16.9719 18.5774C15.5387 18.5774 14.3726 17.4274 14.3726 16.014C14.3726 14.6006 15.5387 13.4507 16.9719 13.4507C18.4051 13.4507 19.5712 14.6006 19.5712 16.014C19.5712 17.4274 18.4051 18.5774 16.9719 18.5774Z" fill="currentColor"/>
<path d="M14.2987 8.85121L13.6754 7.8097L14.8631 7.50791C15.1694 7.42969 15.3834 7.15701 15.3834 6.84498V5.77215C15.3834 5.46003 15.1694 5.18744 14.8631 5.10922C14.863 5.10913 14.8629 5.10913 14.8628 5.10913L13.6753 4.80734L14.2987 3.76575C14.4594 3.4968 14.4152 3.1548 14.1914 2.9341L13.4221 2.17551C13.1984 1.9549 12.8516 1.91131 12.5787 2.0697L11.5226 2.68446L11.2165 1.51309C11.1372 1.21104 10.8608 1 10.5443 1H9.45638C9.13988 1 8.86346 1.21096 8.78414 1.51326L8.47812 2.68437L7.42183 2.06953C7.14911 1.91122 6.8023 1.95482 6.5786 2.17543L5.80928 2.93402C5.58549 3.15471 5.54137 3.49672 5.70206 3.76575L6.32536 4.80726L5.13756 5.10913C4.83119 5.18735 4.61719 5.46003 4.61719 5.77206V6.84489C4.61719 7.15701 4.83119 7.4296 5.13782 7.50791L6.32528 7.80961L5.70181 8.85129C5.54119 9.12024 5.5854 9.46224 5.80919 9.68294L6.57843 10.4415C6.80222 10.6622 7.14893 10.7056 7.42191 10.5473L8.47794 9.93258L8.78397 11.1039C8.86329 11.406 9.1397 11.6171 9.4562 11.6171H10.5442C10.8606 11.6171 11.137 11.4062 11.2164 11.1038L11.5224 9.93267L12.5787 10.5475C12.8514 10.7058 13.1982 10.6623 13.4219 10.4416L14.1912 9.68302C14.4152 9.46233 14.4594 9.12032 14.2987 8.85121V8.85121ZM13.8879 9.38377L13.1187 10.1424C13.0332 10.2268 12.9007 10.2433 12.7968 10.1829L11.495 9.42516C11.437 9.39147 11.3662 9.38648 11.3038 9.41196C11.2415 9.43744 11.1949 9.49026 11.1781 9.55469L10.8009 10.998C10.7705 11.1134 10.665 11.194 10.5443 11.194H9.45629C9.33542 11.194 9.22992 11.1134 9.19971 10.9982L8.82243 9.5546C8.80561 9.49018 8.75908 9.43735 8.69676 9.41187C8.6704 9.40104 8.6425 9.39579 8.61461 9.39579C8.57675 9.39579 8.53898 9.40569 8.5055 9.42516L7.20396 10.1828C7.09983 10.2433 6.96729 10.2267 6.88188 10.1424L6.11265 9.38377C6.02715 9.29945 6.01032 9.16883 6.07153 9.06631L6.8399 7.78253C6.87415 7.72521 6.87922 7.65546 6.85338 7.59392C6.82754 7.53246 6.77398 7.48657 6.70865 7.46998L5.24512 7.09809C5.12812 7.06813 5.0464 6.96409 5.0464 6.84489V5.77215C5.0464 5.65296 5.12812 5.54883 5.24495 5.51903L6.70874 5.14697C6.77406 5.13038 6.82763 5.0845 6.85347 5.02304C6.8793 4.9615 6.87432 4.89174 6.83999 4.83443L6.07179 3.55081C6.01049 3.44813 6.02732 3.31759 6.11282 3.23327L6.88205 2.47468C6.96746 2.39054 7.09983 2.37386 7.20387 2.43413L8.50567 3.19188C8.5637 3.22548 8.63452 3.23039 8.69693 3.20508C8.75925 3.1796 8.80578 3.12678 8.8226 3.06236L9.19979 1.61891C9.2301 1.50361 9.3356 1.4231 9.45646 1.4231H10.5444C10.6652 1.4231 10.7708 1.50369 10.801 1.61883L11.1783 3.06244C11.1951 3.12686 11.2416 3.17969 11.304 3.20517C11.3665 3.23082 11.4372 3.22565 11.4952 3.19196L12.7968 2.4343C12.901 2.37394 13.0333 2.39054 13.1188 2.47477L13.8881 3.23336C13.9736 3.31767 13.9904 3.44821 13.9292 3.55073L13.1609 4.83451C13.1266 4.89183 13.1217 4.96158 13.1475 5.02312C13.1733 5.08458 13.2269 5.13047 13.2922 5.14706L14.756 5.51912C14.8729 5.54908 14.9546 5.65312 14.9546 5.77223V6.84506C14.9546 6.96425 14.8729 7.06838 14.756 7.09818L13.2922 7.47015C13.2269 7.48674 13.1733 7.53263 13.1475 7.59408C13.1217 7.65563 13.1266 7.72538 13.1609 7.7827L13.9291 9.06631C13.9902 9.16883 13.9734 9.29945 13.8879 9.38377V9.38377Z" fill="currentColor"/>
<path d="M9.99938 8.16548C8.96154 8.16548 8.11719 7.33282 8.11719 6.30935C8.11719 5.28579 8.96154 4.45312 9.99938 4.45312C11.0372 4.45312 11.8816 5.28579 11.8816 6.30935C11.8816 7.33282 11.0372 8.16548 9.99938 8.16548V8.16548ZM9.99938 4.8764C9.19821 4.8764 8.5464 5.51927 8.5464 6.30935C8.5464 7.09943 9.19821 7.74221 9.99938 7.74221C10.8005 7.74221 11.4524 7.09943 11.4524 6.30935C11.4524 5.51927 10.8005 4.8764 9.99938 4.8764V4.8764Z" fill="currentColor"/>
</g>
<defs>
<clipPath id="clip0_203_18340">
<rect width="20" height="20" fill="white" style="fill:white;fill-opacity:1;"/>
</clipPath>
</defs>
</svg>
