<svg width="17" height="17" viewBox="0 0 17 17" fill="none" xmlns="http://www.w3.org/2000/svg">
<g clip-path="url(#clip0_203_22542)">
<path d="M11.7022 7.30469C11.7022 6.93793 11.4049 6.64062 11.0381 6.64062H4.19824C3.83148 6.64062 3.53418 6.93793 3.53418 7.30469C3.53418 7.67145 3.83148 7.96875 4.19824 7.96875H11.0381C11.4049 7.96875 11.7022 7.67145 11.7022 7.30469Z" fill="currentColor" />
<path d="M4.19824 9.29688C3.83148 9.29688 3.53418 9.59418 3.53418 9.96094C3.53418 10.3277 3.83148 10.625 4.19824 10.625H8.35231C8.71908 10.625 9.01638 10.3277 9.01638 9.96094C9.01638 9.59418 8.71908 9.29688 8.35231 9.29688H4.19824Z" fill="currentColor" />
<path d="M5.75901 15.6719H3.53809C2.80576 15.6719 2.20996 15.0761 2.20996 14.3438V2.65625C2.20996 1.92392 2.80576 1.32812 3.53809 1.32812H11.7024C12.4347 1.32812 13.0305 1.92392 13.0305 2.65625V6.74023C13.0305 7.107 13.3278 7.4043 13.6946 7.4043C14.0613 7.4043 14.3586 7.107 14.3586 6.74023V2.65625C14.3586 1.19159 13.167 0 11.7024 0H3.53809C2.07343 0 0.881836 1.19159 0.881836 2.65625V14.3438C0.881836 15.8084 2.07343 17 3.53809 17H5.75901C6.12577 17 6.42307 16.7027 6.42307 16.3359C6.42307 15.9692 6.12577 15.6719 5.75901 15.6719Z" fill="currentColor" />
<path d="M15.5347 9.61389C14.7579 8.83714 13.4941 8.83711 12.7178 9.61336L9.07203 13.2511C8.9946 13.3284 8.93749 13.4235 8.90568 13.5282L8.11169 16.1421C8.0413 16.3739 8.10263 16.6255 8.27177 16.7989C8.39847 16.9287 8.5706 16.9992 8.74714 16.9992C8.8062 16.9992 8.86584 16.9913 8.92437 16.9751L11.6047 16.2326C11.715 16.2021 11.8155 16.1435 11.8966 16.0626L15.5347 12.4313C16.3115 11.6546 16.3115 10.3907 15.5347 9.61389ZM11.0819 14.9993L9.73344 15.3728L10.1281 14.0736L12.588 11.6191L13.5274 12.5584L11.0819 14.9993ZM14.5961 11.4918L14.4674 11.6202L13.5283 10.681L13.6565 10.5531C13.9154 10.2942 14.3367 10.2942 14.5956 10.5531C14.8545 10.812 14.8545 11.2333 14.5961 11.4918Z" fill="currentColor" />
<path d="M11.0381 3.98438H4.19824C3.83148 3.98438 3.53418 4.28168 3.53418 4.64844C3.53418 5.0152 3.83148 5.3125 4.19824 5.3125H11.0381C11.4049 5.3125 11.7022 5.0152 11.7022 4.64844C11.7022 4.28168 11.4049 3.98438 11.0381 3.98438Z" fill="currentColor" />
</g>
<defs>
<clipPath id="clip0_203_22542">
<rect width="17" height="17" fill="currentColor" />
</clipPath>
</defs>
</svg>
